<svg clip-rule="evenodd" fill-rule="evenodd" stroke-linejoin="round" stroke-miterlimit="2" viewBox="0 0 1000 1000" xmlns="http://www.w3.org/2000/svg"><path d="m356.87 507.759-92.151-92.15c-7.485-7.486-10.99-16.23-10.574-26.211.411-9.882 4.3-18.539 11.711-25.95 7.448-7.449 16.149-11.146 26.08-11.146 9.932 0 18.633 3.697 26.081 11.146l103.44 103.44.028.028c11.205 11.493 16.802 25.172 16.802 41.034 0 15.883-5.61 29.434-16.83 40.653l-103.44 103.441c-7.448 7.448-16.149 11.146-26.081 11.146-9.931 0-18.632-3.698-26.08-11.146s-11.146-16.15-11.146-26.081c0-9.927 3.695-18.625 11.137-26.072z" fill="#ff3c32" stroke="#000" stroke-width="14.58" transform="translate(-84.34337 -45.335785)"/><path d="m927.111 451.021c14.234 0 27.886 5.655 37.951 15.72s15.719 23.716 15.719 37.95v241.328c0 29.415-10.46 54.469-31.38 75.162-20.917 20.702-46.24 31.052-75.962 31.052h-188.697v37.287c0 14.876-5.346 27.445-16.033 37.703-10.684 10.271-23.417 15.402-38.204 15.402h-262.142c-14.876 0-27.445-5.131-37.707-15.402-10.267-10.258-15.398-22.827-15.398-37.703v-37.287h-189.829c-29.415 0-54.473-10.35-75.17-31.052-20.694-20.693-31.04-45.747-31.04-75.162v-567.218c0-29.726 10.346-55.046 31.04-75.966 20.697-20.916 45.755-31.377 75.17-31.377h419.84c29.641 0 53.67 24.029 53.67 53.67v.003c0 29.641-24.029 53.67-53.67 53.67h-377.746c-23.244 0-42.094 18.845-42.094 42.093v483.032c0 23.248 18.85 42.093 42.094 42.093h663.822c23.248 0 42.094-18.845 42.094-42.093v-199.235c0-14.234 5.654-27.885 15.719-37.95s23.716-15.72 37.951-15.72zm-221.172-325.893c0-29.641 24.029-53.67 53.67-53.67h113.83c29.722 0 55.045 10.461 75.962 31.377 20.92 20.92 31.38 46.24 31.38 75.966v111.208c0 14.234-5.654 27.885-15.719 37.95s-23.717 15.72-37.951 15.72h-.002c-29.641 0-53.67-24.029-53.67-53.67v-69.115c0-23.248-18.846-42.093-42.094-42.093h-71.736c-29.641 0-53.67-24.029-53.67-53.67z" fill="#7f7f7f"/><path d="m927.111 451.021c14.234 0 27.886 5.655 37.951 15.72s15.719 23.716 15.719 37.95v241.328c0 29.415-10.46 54.469-31.38 75.162-20.917 20.702-46.24 31.052-75.962 31.052h-188.697v37.287c0 14.876-5.346 27.445-16.033 37.703-10.684 10.271-23.417 15.402-38.204 15.402h-262.142c-14.876 0-27.445-5.131-37.707-15.402-10.267-10.258-15.398-22.827-15.398-37.703v-37.287h-189.829c-29.415 0-54.473-10.35-75.17-31.052-20.694-20.693-31.04-45.747-31.04-75.162v-567.218c0-29.726 10.346-55.046 31.04-75.966 20.697-20.916 45.755-31.377 75.17-31.377h419.84c29.641 0 53.67 24.029 53.67 53.67v.003c0 29.641-24.029 53.67-53.67 53.67h-377.746c-23.244 0-42.094 18.845-42.094 42.093v483.032c0 23.248 18.85 42.093 42.094 42.093h663.822c23.248 0 42.094-18.845 42.094-42.093v-199.235c0-14.234 5.654-27.885 15.719-37.95s23.716-15.72 37.951-15.72zm0 18.75h-.002c-9.262 0-18.144 3.679-24.693 10.228-6.548 6.549-10.227 15.431-10.227 24.692v199.235c0 33.603-27.24 60.843-60.844 60.843h-663.822c-33.598 0-60.844-27.24-60.844-60.843v-483.032c0-33.603 27.246-60.843 60.844-60.843h377.746c19.286 0 34.92-15.634 34.92-34.92v-.003c0-19.285-15.634-34.92-34.92-34.92h-419.84c-24.199 0-44.814 8.607-61.841 25.814-17.098 17.286-25.619 38.217-25.619 62.779v567.218c0 24.224 8.506 44.862 25.548 61.904l.001.001c17.045 17.049 37.687 25.559 61.911 25.559h189.829c10.355 0 18.75 8.395 18.75 18.75v37.287c0 9.631 3.253 17.798 9.901 24.439l.011.011c6.645 6.651 14.811 9.905 24.443 9.905h262.142c9.758 0 18.159-3.391 25.209-10.169l.011-.01c6.851-6.577 10.267-14.639 10.267-24.176v-37.287c0-10.355 8.395-18.75 18.75-18.75h188.697c24.557 0 45.49-8.524 62.772-25.628l.004-.004c17.21-17.024 25.816-37.634 25.816-61.832v-241.328c0-9.261-3.679-18.143-10.228-24.692-6.548-6.549-15.43-10.228-24.692-10.228zm-221.172-344.643c0-29.641 24.029-53.67 53.67-53.67h113.83c29.722 0 55.045 10.461 75.962 31.377 20.92 20.92 31.38 46.24 31.38 75.966v111.208c0 14.234-5.654 27.885-15.719 37.95s-23.717 15.72-37.951 15.72h-.002c-29.641 0-53.67-24.029-53.67-53.67v-69.115c0-23.248-18.846-42.093-42.094-42.093h-71.736c-29.641 0-53.67-24.029-53.67-53.67zm18.75 0v.003c0 19.286 15.634 34.92 34.92 34.92h71.736c33.604 0 60.844 27.24 60.844 60.843v69.115c0 19.286 15.634 34.92 34.92 34.92h.002c9.262 0 18.144-3.679 24.692-10.228 6.549-6.549 10.228-15.431 10.228-24.692v-111.208c0-24.536-8.621-45.44-25.889-62.708-17.264-17.264-38.171-25.885-62.703-25.885h-113.83c-19.286 0-34.92 15.635-34.92 34.92z"/><g stroke="#000"><path d="m624.743-286.728-.006-.042c-1.013-7.698.45-14.909 4.402-21.619l4.608-9.317c.132-.266.275-.527.428-.781 4.011-6.639 9.396-11.153 16.015-13.699 6.238-2.398 12.927-3.015 20.075-1.715l.031.006.096.019 19.832 3.858c4.433-3.807 9.662-7.479 15.704-10.988 5.785-3.359 11.514-5.918 17.172-7.703l3.122-20.293c1.344-8.783 5.305-16.049 11.837-21.821 6.639-5.873 14.386-8.807 23.238-8.807h8.53c8.161 0 15.582 2.76 22.2 8.453 6.336 5.446 10.446 12.388 12.254 20.87l.021.104.062.332-.014.017.009.124.025-.028 3.356 21.143c5.202 1.788 10.698 4.288 16.472 7.536 6.261 3.523 11.612 7.213 16.076 11.035l19.182-3.822c6.548-1.31 13.318-.72 20.285 1.959 7.264 2.794 12.854 7.55 16.751 14.229l4.791 8.153.039.067.109.194-.004.007.03.063.006-.011c4.079 7.525 5.338 15.134 4.006 22.784-1.333 7.666-4.944 14.195-10.895 19.551l-15.886 15.354c.629 3.138.934 6.897.779 11.298-.142 4.02-.514 7.476-1.052 10.377l15.841 14.779c6.175 5.537 9.898 12.306 11.226 20.276 1.342 8.052-.006 15.436-3.93 22.164l-4.717 9.434c-.122.243-.253.482-.393.716-4.277 7.126-10.082 11.631-17.21 13.77-6.221 1.866-12.75 2.216-19.593.972l-19.047-3.809c-4.634 4.196-10.163 8.03-16.618 11.459-5.717 3.037-11.188 5.5-16.403 7.403l-3.194 20.757c-.037.24-.082.481-.136.717-1.891 8.404-6.118 15.34-12.658 20.815-6.738 5.636-14.294 8.388-22.607 8.388h-7.916c-8.203 0-15.684-2.582-22.405-7.828-6.926-5.41-11.077-12.494-12.423-21.263.592 2.96-.029-.181-.029-.181l-3.194-21.294c-5.558-1.94-11.183-4.463-16.869-7.581-6.207-3.404-11.576-7.203-16.13-11.36l-17.759 3.654c-7.255 1.921-14.373 1.521-21.355-1.191-7.128-2.767-12.711-7.456-16.729-14.091l-.056-.093-.211-.373-4.732-8.796c-3.953-6.664-5.473-13.978-4.475-21.962 1.023-8.176 4.591-14.996 10.692-20.464l16.237-15.151c-.453-3.102-.653-6.834-.502-11.207.13-3.777.397-6.976.754-9.602l-17.148-16.683c-5.319-4.624-8.707-10.757-9.894-18.539zm140.592 87.257c11.406 0 21.073-4.044 28.995-12.153 7.986-8.176 11.973-18.005 11.973-29.484 0-11.113-4.082-20.716-12.152-28.845-8.062-8.126-17.752-12.206-29.081-12.206-11.333 0-21.053 4.135-29.185 12.345-8.148 8.226-12.27 17.928-12.27 29.146 0 11.189 4.113 20.828 12.254 28.955 8.174 8.155 17.993 12.242 29.466 12.242z" fill="#ff3c32" stroke-width="20.36" transform="matrix(.716173 0 0 .716173 166.041302 634.875098)"/><path d="m348.103 700.884c-12.302 0-22.399-4.229-30.325-12.601-7.868-8.306-11.838-18.541-11.838-30.735 0-12.272 4.021-22.285 11.94-30.087 7.901-7.779 17.96-11.73 30.223-11.73h434.794c11.68 0 21.633 4.18 29.858 12.545 8.186 8.32 12.305 18.577 12.305 30.791 0 12.272-4.02 22.285-11.938 30.087l-.002.001c-7.9 7.778-17.959 11.729-30.223 11.729z" fill="#007dff" stroke-width="14.77" transform="matrix(1 0 0 .975072 -6 16.471632)"/><path d="m449.103 504.161c-12.302 0-22.399-4.229-30.325-12.602-7.868-8.305-11.838-18.541-11.838-30.735 0-12.228 3.992-22.364 11.883-30.442 7.915-8.099 17.995-12.2 30.28-12.2h95.628c11.699 0 21.672 4.327 29.91 13.012 8.159 8.596 12.254 18.975 12.254 31.15 0 12.272-4.021 22.284-11.939 30.086l-.001.002c-7.901 7.779-17.96 11.729-30.224 11.729z" fill="#007dff" stroke-width="14.81" transform="matrix(1 0 0 .969469 -15 15.318571)"/><path d="m348.103 309.915c-12.302 0-22.399-4.228-30.325-12.601-7.868-8.305-11.838-18.541-11.838-30.734 0-12.229 3.992-22.364 11.883-30.443l.001-.001c7.915-8.098 17.994-12.199 30.279-12.199h434.794c11.698 0 21.672 4.327 29.91 13.011 8.159 8.597 12.253 18.976 12.253 31.152 0 12.271-4.02 22.283-11.938 30.085l-.001.001c-7.901 7.779-17.96 11.729-30.224 11.729z" fill="#007dff" stroke-width="14.84" transform="matrix(1 0 0 .965699 -6 8.681355)"/></g></svg>